<svg viewBox="0 0 24 24" fill="none" xmlns="http://www.w3.org/2000/svg">
<g id="icon_24x24_OBER" clip-path="url(#clip0_66952_19766)">
<path id="Vector" d="M12 24C18.6274 24 24 18.6274 24 12C24 5.37258 18.6274 0 12 0C5.3726 0 0 5.37258 0 12C0 18.6274 5.3726 24 12 24Z" fill="#3956F6"/>
<path id="Vector_2" d="M18.6717 9.49636C18.7949 9.84824 19.18 10.0336 19.5319 9.91044C19.8838 9.78725 20.0692 9.40212 19.946 9.05024L18.6717 9.49636ZM15.8781 5.09292L15.535 5.67429L15.8781 5.09292ZM5.86244 6.78965L5.34703 6.35371L5.34703 6.35371L5.86244 6.78965ZM3.32495 11.866C3.32453 12.2388 3.62642 12.5414 3.99924 12.5418C4.37206 12.5422 4.67463 12.2403 4.67505 11.8675L3.32495 11.866ZM5.07948 14.2549C4.95629 13.903 4.57117 13.7176 4.21929 13.8408C3.86741 13.964 3.68202 14.3491 3.80521 14.701L5.07948 14.2549ZM7.87308 18.6583L8.21615 18.0769L7.87308 18.6583ZM17.8888 16.9616L18.4042 17.3975L17.8888 16.9616ZM19.7512 11.8845L20.4262 11.8852C20.4267 11.5124 20.1248 11.2099 19.752 11.2094L19.7512 11.8845ZM11.8756 11.8756L11.8756 11.2006C11.5029 11.2006 11.2008 11.5026 11.2005 11.8752C11.2003 12.2479 11.5022 12.5502 11.8748 12.5507L11.8756 11.8756ZM16.1509 11.8756L16.1509 12.5507L16.8259 12.5507V11.8756H16.1509ZM15.2355 9.23182L14.7049 9.64926V9.64926L15.2355 9.23182ZM12.8811 7.72022L12.7224 8.37634V8.37634L12.8811 7.72022ZM10.0962 7.98815L9.81526 7.37434L10.0962 7.98815ZM8.07327 9.92087L7.47291 9.61223L8.07327 9.92087ZM7.67866 12.6907L8.34133 12.562L7.67866 12.6907ZM9.08135 15.1115L9.52254 14.6005L9.52254 14.6005L9.08135 15.1115ZM11.6807 16.1465L11.7114 15.4721L11.6807 16.1465ZM14.7563 15.9015C15.0595 15.6846 15.1294 15.2629 14.9124 14.9597C14.6955 14.6565 14.2738 14.5866 13.9706 14.8035L14.7563 15.9015ZM4.11248 11.2006C3.73965 11.2006 3.43742 11.5028 3.43742 11.8756C3.43742 12.2484 3.73965 12.5507 4.11248 12.5507V11.2006ZM7.60024 12.5507C7.97307 12.5507 8.2753 12.2484 8.2753 11.8756C8.2753 11.5028 7.97307 11.2006 7.60024 11.2006V12.5507ZM19.946 9.05024C19.279 7.14512 17.9596 5.53738 16.2212 4.51154L15.535 5.67429C16.9989 6.53815 18.1101 7.89204 18.6717 9.49636L19.946 9.05024ZM16.2212 4.51154C14.4828 3.48571 12.4375 3.10794 10.4474 3.44508L10.6729 4.77622C12.3488 4.49231 14.0711 4.81043 15.535 5.67429L16.2212 4.51154ZM10.4474 3.44508C8.45726 3.78223 6.65055 4.81255 5.34703 6.35371L6.37786 7.22559C7.47556 5.92778 8.997 5.06013 10.6729 4.77622L10.4474 3.44508ZM5.34703 6.35371C4.04351 7.89487 3.32722 9.84748 3.32495 11.866L4.67505 11.8675C4.67697 10.1677 5.28015 8.52341 6.37786 7.22559L5.34703 6.35371ZM3.80521 14.701C4.47218 16.6061 5.79162 18.2139 7.53001 19.2397L8.21615 18.0769C6.75225 17.2131 5.64114 15.8592 5.07948 14.2549L3.80521 14.701ZM7.53001 19.2397C9.2684 20.2655 11.3137 20.6433 13.3038 20.3061L13.0783 18.975C11.4024 19.2589 9.68006 18.9408 8.21615 18.0769L7.53001 19.2397ZM13.3038 20.3061C15.2939 19.969 17.1006 18.9387 18.4042 17.3975L17.3733 16.5256C16.2756 17.8235 14.7542 18.6911 13.0783 18.975L13.3038 20.3061ZM18.4042 17.3975C19.7077 15.8564 20.424 13.9037 20.4262 11.8852L19.0761 11.8837C19.0742 13.5835 18.471 15.2278 17.3733 16.5256L18.4042 17.3975ZM19.752 11.2094L11.8764 11.2006L11.8748 12.5507L19.7504 12.5595L19.752 11.2094ZM16.8259 11.8756C16.8259 10.7652 16.4526 9.68703 15.766 8.81438L14.7049 9.64926C15.2043 10.2839 15.4758 11.068 15.4758 11.8756H16.8259ZM15.766 8.81438C15.0793 7.94173 14.1192 7.32528 13.0399 7.06411L12.7224 8.37634C13.5073 8.56628 14.2056 9.01461 14.7049 9.64926L15.766 8.81438ZM13.0399 7.06411C11.9607 6.80293 10.8249 6.9122 9.81526 7.37434L10.3772 8.60196C11.1115 8.26586 11.9375 8.18639 12.7224 8.37634L13.0399 7.06411ZM9.81526 7.37434C8.80558 7.83649 7.98061 8.62468 7.47291 9.61223L8.67363 10.2295C9.04287 9.51129 9.64285 8.93807 10.3772 8.60196L9.81526 7.37434ZM7.47291 9.61223C6.96521 10.5998 6.80428 11.7294 7.01599 12.8194L8.34133 12.562C8.18736 11.7692 8.3044 10.9477 8.67363 10.2295L7.47291 9.61223ZM7.01599 12.8194C7.22769 13.9094 7.79972 14.8967 8.64016 15.6224L9.52254 14.6005C8.91131 14.0727 8.49529 13.3548 8.34133 12.562L7.01599 12.8194ZM8.64016 15.6224C9.48059 16.3481 10.5406 16.7702 11.6499 16.8208L11.7114 15.4721C10.9047 15.4353 10.1338 15.1283 9.52254 14.6005L8.64016 15.6224ZM11.6499 16.8208C12.7591 16.8715 13.8532 16.5477 14.7563 15.9015L13.9706 14.8035C13.3139 15.2735 12.5182 15.509 11.7114 15.4721L11.6499 16.8208ZM11.8756 12.5507L16.1509 12.5507L16.1509 11.2006L11.8756 11.2006L11.8756 12.5507ZM4.11248 12.5507H7.60024V11.2006H4.11248V12.5507Z" fill="white"/>
</g>
<defs>
<clipPath id="clip0_66952_19766">
<rect width="24" height="24" fill="white"/>
</clipPath>
</defs>
</svg>
