<svg viewBox="0 0 24 24" fill="none" xmlns="http://www.w3.org/2000/svg">
<path id="Shape" fill-rule="evenodd" clip-rule="evenodd" d="M20.64 12.2004C20.6404 11.583 20.5855 10.9669 20.476 10.3594H12V13.8404H16.844C16.7433 14.3913 16.5318 14.9161 16.2224 15.3829C15.913 15.8497 15.5121 16.249 15.044 16.5564V18.8144H17.953C18.8393 17.9617 19.5364 16.9323 19.9993 15.7929C20.4622 14.6535 20.6805 13.4295 20.64 12.2004Z" fill="#4285F4"/>
<path id="Shape_2" fill-rule="evenodd" clip-rule="evenodd" d="M12 21.0009C14.1909 21.0602 16.3215 20.28 17.956 18.8199L15.047 16.5619C14.3512 17.0084 13.5627 17.2901 12.7415 17.3855C11.9203 17.4809 11.0882 17.3876 10.3085 17.1126C9.52888 16.8376 8.82232 16.3882 8.24272 15.7987C7.66312 15.2092 7.22577 14.4951 6.96403 13.7109H3.95703V16.0429C4.70635 17.5337 5.85531 18.7867 7.27559 19.6623C8.69588 20.5378 10.3316 21.0013 12 21.0009Z" fill="#34A853"/>
<path id="Shape_3" fill-rule="evenodd" clip-rule="evenodd" d="M6.96441 13.711C6.58807 12.602 6.58807 11.3999 6.96441 10.291V7.95898H3.95741C3.32785 9.21337 3 10.5975 3 12.001C3 13.4045 3.32785 14.7886 3.95741 16.043L6.96441 13.711Z" fill="#FBBC05"/>
<path id="Shape_4" fill-rule="evenodd" clip-rule="evenodd" d="M12 6.58058C13.2795 6.55895 14.5158 7.04258 15.441 7.92658L18.022 5.34558C16.3931 3.81517 14.235 2.97478 12 3.00058C10.3316 3.00026 8.69588 3.46374 7.27559 4.33925C5.85531 5.21477 4.70635 6.46785 3.95703 7.95858L6.96403 10.2906C7.30994 9.22315 7.98188 8.29107 8.88528 7.62554C9.78868 6.96001 10.878 6.59454 12 6.58058Z" fill="#EA4335"/>
</svg>
