<svg width="16" height="16" viewBox="0 0 16 16" fill="none" xmlns="http://www.w3.org/2000/svg">
<path id="Vector" d="M7.48224 12.9833C7.67515 13.1297 7.85694 13.2669 7.99992 13.3746C8.14386 13.2662 8.3271 13.1278 8.52131 12.9804C8.96413 12.6442 9.45124 12.2705 9.66725 12.0917L9.66726 12.0917C11.1888 10.8328 12.4033 9.82578 13.245 8.83967C14.0741 7.86833 14.5 6.96377 14.5 5.9163C14.5 3.93508 13.1011 2.5 11.2812 2.5C10.6311 2.5 10.0397 2.69784 9.51137 3.09455L9.21114 2.69473L9.51136 3.09455C8.99722 3.48062 8.64645 3.98025 8.43559 4.3544L8.00001 5.12729L7.56442 4.35442C7.35354 3.98027 7.00277 3.48062 6.48864 3.09455L6.78663 2.6977L6.48863 3.09455C5.96032 2.69784 5.36893 2.5 4.71875 2.5C2.89895 2.5 1.5 3.93508 1.5 5.9163C1.5 6.96377 1.9259 7.86833 2.75496 8.83964C3.59662 9.82571 4.81105 10.8327 6.33241 12.0915L6.33242 12.0915C6.55344 12.2743 7.04072 12.6482 7.48224 12.9833Z" stroke="#191919"/>
</svg>
