<svg width="14" height="14" viewBox="0 0 14 14" fill="none" xmlns="http://www.w3.org/2000/svg">
<path id="%" d="M3.66234 12.9981L2.75638 12.3883L10.335 0.802505L11.241 1.41228L3.66234 12.9981ZM1.03158 5.78526C0.474068 5.1929 0.195312 4.46698 0.195312 3.60748C0.195312 2.74799 0.474068 2.02787 1.03158 1.44713C1.58909 0.854771 2.29759 0.558594 3.15709 0.558594C4.01659 0.558594 4.72509 0.854771 5.2826 1.44713C5.84011 2.02787 6.11887 2.74799 6.11887 3.60748C6.11887 4.46698 5.84011 5.1929 5.2826 5.78526C4.72509 6.366 4.01659 6.65637 3.15709 6.65637C2.29759 6.65637 1.58909 6.366 1.03158 5.78526ZM1.833 2.17886C1.50779 2.53892 1.34518 3.01513 1.34518 3.60748C1.34518 4.19984 1.50779 4.67605 1.833 5.03611C2.15822 5.39616 2.59958 5.57619 3.15709 5.57619C3.7146 5.57619 4.15596 5.39616 4.48118 5.03611C4.80639 4.67605 4.969 4.19984 4.969 3.60748C4.969 3.01513 4.80639 2.53892 4.48118 2.17886C4.15596 1.8188 3.7146 1.63877 3.15709 1.63877C2.59958 1.63877 2.15822 1.8188 1.833 2.17886ZM8.71478 12.3709C8.15727 11.7785 7.87851 11.0526 7.87851 10.1931C7.87851 9.33359 8.15727 8.61347 8.71478 8.03273C9.27229 7.44037 9.98079 7.14419 10.8403 7.14419C11.6998 7.14419 12.4083 7.44037 12.9658 8.03273C13.5233 8.61347 13.8021 9.33359 13.8021 10.1931C13.8021 11.0526 13.5233 11.7785 12.9658 12.3709C12.4083 12.9516 11.6998 13.242 10.8403 13.242C9.98079 13.242 9.27229 12.9516 8.71478 12.3709ZM9.5162 8.76446C9.19099 9.12452 9.02838 9.60073 9.02838 10.1931C9.02838 10.7854 9.19099 11.2616 9.5162 11.6217C9.84142 11.9818 10.2828 12.1618 10.8403 12.1618C11.3978 12.1618 11.8392 11.9818 12.1644 11.6217C12.4896 11.2616 12.6522 10.7854 12.6522 10.1931C12.6522 9.60073 12.4896 9.12452 12.1644 8.76446C11.8392 8.4044 11.3978 8.22437 10.8403 8.22437C10.2828 8.22437 9.84142 8.4044 9.5162 8.76446Z" fill="#191919"/>
</svg>
