<svg width="143" height="95" viewBox="0 0 143 95" fill="none" xmlns="http://www.w3.org/2000/svg">
<path d="M14.9091 93.0909H0L33.5 0H49.7273L83.2273 93.0909H68.3182L42 16.9091H41.2727L14.9091 93.0909ZM17.4091 56.6364H65.7727V68.4545H17.4091V56.6364Z" fill="#CECECE"/>
<path d="M108.218 94.6364C103.793 94.6364 99.7935 93.8182 96.2177 92.1818C92.642 90.5152 89.8086 88.1061 87.7177 84.9545C85.6571 81.803 84.6268 77.9394 84.6268 73.3636C84.6268 69.4242 85.3844 66.1818 86.8995 63.6364C88.4147 61.0909 90.4602 59.0758 93.0359 57.5909C95.6117 56.1061 98.4905 54.9849 101.672 54.2273C104.854 53.4697 108.097 52.8939 111.4 52.5C115.581 52.0152 118.975 51.6212 121.581 51.3182C124.187 50.9849 126.081 50.4545 127.263 49.7273C128.445 49 129.036 47.8182 129.036 46.1818V45.8636C129.036 41.8939 127.915 38.8182 125.672 36.6364C123.46 34.4545 120.157 33.3636 115.763 33.3636C111.187 33.3636 107.581 34.3788 104.945 36.4091C102.339 38.4091 100.536 40.6364 99.5359 43.0909L86.7632 40.1818C88.2783 35.9394 90.4905 32.5152 93.3995 29.9091C96.3389 27.2727 99.7177 25.3636 103.536 24.1818C107.354 22.9697 111.369 22.3636 115.581 22.3636C118.369 22.3636 121.324 22.697 124.445 23.3636C127.597 24 130.536 25.1818 133.263 26.9091C136.021 28.6364 138.278 31.1061 140.036 34.3182C141.793 37.5 142.672 41.6364 142.672 46.7273V93.0909H129.4V83.5455H128.854C127.975 85.303 126.657 87.0303 124.9 88.7273C123.142 90.4242 120.884 91.8333 118.127 92.9546C115.369 94.0758 112.066 94.6364 108.218 94.6364ZM111.172 83.7273C114.93 83.7273 118.142 82.9848 120.809 81.5C123.506 80.0152 125.551 78.0758 126.945 75.6818C128.369 73.2576 129.081 70.6667 129.081 67.9091V58.9091C128.597 59.3939 127.657 59.8485 126.263 60.2727C124.9 60.6667 123.339 61.0152 121.581 61.3182C119.824 61.5909 118.112 61.8485 116.445 62.0909C114.778 62.303 113.384 62.4849 112.263 62.6364C109.627 62.9697 107.218 63.5303 105.036 64.3182C102.884 65.1061 101.157 66.2424 99.8541 67.7273C98.5814 69.1818 97.945 71.1212 97.945 73.5455C97.945 76.9091 99.1874 79.4546 101.672 81.1818C104.157 82.8788 107.324 83.7273 111.172 83.7273Z" fill="#CECECE"/>
</svg>
